# xmcd CD database file
#
# Track frame offsets:
#	150
#	17518
#	34726
#	57910
#	78060
#	96204
#	112441
#	124482
#	146587
#	163791
#	173940
#	197974
#	213991
#	233154
#	251230
#	265753
#	283648
#	298791
#
# Disc length: 4240 seconds
#
# Revision: 0
# Processed by: cddbd v1.5.1PL2 Copyright (c) Steve Scherf et al.
# Submitted via: CDex 1.51
#
DISCID=14108e12
DTITLE=VA - Проверено электроникой - Проверено электроникой
DYEAR=2005
DGENRE=New Age
TTITLE0=Depeche Mode - People Are People
TTITLE1=Nena - 99 Luftballons
TTITLE2=A Flock Of Seagulls - Ran (So Far Away)
TTITLE3=Daryl Hall and John Oates - Maneater
TTITLE4=Billy Ocean - Carribean Queen
TTITLE5=Haircut 100 - Love Plus One
TTITLE6=Bow Wow Wow - Baby Oh No
TTITLE7=The Church - Under The Milky Way
TTITLE8=Cyndi Lauper - Girl Just Want To Have Fun
TTITLE9=The Twins - Ballet Dancer
TTITLE10=Allison Moyet - Is This Love? (LA Mix)
TTITLE11=Rick Astley -Never Gonna Give You Up
TTITLE12=The Alan Parson Project - Games People Play
TTITLE13=The Blow Monkeys - It Doesn't Have To Be This Way
TTITLE14=Terence Trent D'Arcy - If You Let Me Stay
TTITLE15=Bros. - When Will I Be Famous
TTITLE16=Herbie Hancock - Rockit
TTITLE17=Duran Duran - Wild Boys
EXTD=YEAR: 2005
EXTT0=
EXTT1=
EXTT2=
EXTT3=
EXTT4=
EXTT5=
EXTT6=
EXTT7=
EXTT8=
EXTT9=
EXTT10=
EXTT11=
EXTT12=
EXTT13=
EXTT14=
EXTT15=
EXTT16=
EXTT17=
PLAYORDER=
